<svg width="110" height="54" viewBox="0 0 110 54" fill="none" xmlns="http://www.w3.org/2000/svg">
<g clip-path="url(#clip0_2503_3)">
<path d="M2.42089 23.9806H1.16064V37.5181H2.42089V23.9806Z" fill="black"/>
<path d="M12.0994 37.5231L8.23395 30.2844C8.12934 30.1045 7.98987 29.8445 7.81552 29.5146C7.64118 29.1846 7.46186 28.8447 7.27257 28.4948C7.08329 28.1448 6.90396 27.8049 6.72962 27.4749C6.55528 27.145 6.42577 26.8901 6.33611 26.7051H6.29626V37.5231H5.03601V23.9856H6.25641C6.36101 24.1806 6.51045 24.4655 6.71468 24.8404C6.91393 25.2154 7.14306 25.6403 7.39212 26.1052C7.64616 26.5701 7.90519 27.06 8.17915 27.5749C8.44814 28.0848 8.70716 28.5747 8.95622 29.0347C9.2003 29.4946 9.42445 29.9145 9.6237 30.2894C9.82295 30.6644 9.98235 30.9493 10.0969 31.1443L12.0147 34.7836L12.0944 34.7636V23.9856H13.3148V37.5231H12.0994Z" fill="black"/>
<path d="M19.0531 25.1104V37.5231H17.8327V25.1104H14.6149V23.9806H22.2311V25.1104H19.0531Z" fill="black"/>
<path d="M23.591 37.5231V23.9806H30.5846V25.1504H24.8114V30.0695H29.7727V31.1993H24.8114V36.3133H30.5846V37.5231H23.591Z" fill="black"/>
<path d="M33.5136 25.1104V30.3444H36.1187C36.9506 30.3444 37.5832 30.1145 38.0265 29.6495C38.4649 29.1896 38.689 28.5198 38.689 27.6499C38.689 26.7801 38.4699 26.1702 38.0365 25.7453C37.6031 25.3203 36.9656 25.1104 36.1187 25.1104H33.5136ZM36.3628 23.9806C37.5135 23.9806 38.4001 24.3005 39.0178 24.9454C39.6355 25.5853 39.9493 26.4901 39.9493 27.6599C39.9493 28.5547 39.7401 29.3146 39.3316 29.9345C38.9182 30.5594 38.2906 30.9993 37.4537 31.2592L40.1286 37.5231H38.7538L36.2234 31.4142L33.5186 31.4342V37.5231H32.2982V23.9856H36.3678L36.3628 23.9806Z" fill="black"/>
<path d="M49.0051 37.5231L45.1397 30.2844C45.0351 30.1045 44.8956 29.8445 44.7213 29.5146C44.5469 29.1846 44.3676 28.8447 44.1783 28.4948C43.9891 28.1448 43.8097 27.8049 43.6354 27.4749C43.461 27.145 43.3315 26.8901 43.2419 26.7051H43.202V37.5231H41.9418V23.9856H43.1622C43.2668 24.1806 43.4162 24.4655 43.6204 24.8404C43.8197 25.2154 44.0488 25.6403 44.2979 26.1052C44.5519 26.5701 44.811 27.06 45.0849 27.5749C45.3589 28.0848 45.6129 28.5747 45.862 29.0347C46.1061 29.4946 46.3302 29.9145 46.5295 30.2894C46.7287 30.6644 46.8881 30.9493 47.0027 31.1443L48.9204 34.7836L49.0001 34.7636V23.9856H50.2205V37.5231H49.0001H49.0051Z" fill="black"/>
<path d="M57.0647 28.9597L56.2328 25.8103H56.1581C56.1332 25.9152 56.0784 26.1152 56.0037 26.4151C55.924 26.7151 55.8393 27.04 55.7496 27.39C55.66 27.7399 55.5703 28.0698 55.4856 28.3748C55.401 28.6797 55.3462 28.8797 55.3213 28.9697C55.2814 29.1246 55.2067 29.3996 55.0871 29.7945C54.9726 30.1894 54.853 30.6094 54.7285 31.0593C54.604 31.5042 54.4844 31.9291 54.3699 32.324C54.2553 32.719 54.1706 32.9939 54.1158 33.1489H58.2452L57.0647 28.9647V28.9597ZM59.4507 37.5181L58.5391 34.2687H53.8468L52.9353 37.5181H51.6551L55.5902 23.9806H56.8106L60.7458 37.5181H59.4457H59.4507Z" fill="black"/>
<path d="M64.8553 25.1104V37.5231H63.6349V25.1104H60.4171V23.9806H68.0333V25.1104H64.8553Z" fill="black"/>
<path d="M70.7481 23.9806H69.4879V37.5181H70.7481V23.9806Z" fill="black"/>
<path d="M79.4901 27.8199C79.4901 27.5199 79.4403 27.21 79.3457 26.8851C79.246 26.5601 79.0966 26.2652 78.8874 26.0002C78.6782 25.7353 78.4092 25.5103 78.0804 25.3354C77.7467 25.1604 77.3482 25.0704 76.8849 25.0704C76.4217 25.0704 76.0182 25.1504 75.6795 25.3154C75.3408 25.4803 75.0618 25.6903 74.8426 25.9502C74.6235 26.2102 74.4591 26.5051 74.3545 26.8351C74.2499 27.165 74.2001 27.495 74.2001 27.8199V33.5288C74.2001 33.9588 74.2549 34.3537 74.3645 34.7186C74.474 35.0835 74.6434 35.3985 74.8725 35.6634C75.0967 35.9284 75.3806 36.1384 75.7193 36.2883C76.0581 36.4383 76.4516 36.5133 76.9049 36.5133C77.2685 36.5133 77.6072 36.4433 77.926 36.3083C78.2448 36.1733 78.5188 35.9784 78.7529 35.7334C78.987 35.4885 79.1663 35.1935 79.2959 34.8586C79.4254 34.5237 79.4901 34.1587 79.4901 33.7688V27.8249V27.8199ZM80.7703 33.6488C80.7703 34.2437 80.6756 34.7886 80.4913 35.2735C80.3021 35.7584 80.0381 36.1783 79.6943 36.5283C79.3506 36.8782 78.9472 37.1532 78.4739 37.3481C78.0007 37.5431 77.4777 37.6381 76.8949 37.6381C76.2224 37.6381 75.6396 37.5331 75.1515 37.3181C74.6583 37.1032 74.2549 36.8082 73.9311 36.4333C73.6073 36.0584 73.3682 35.6135 73.2138 35.1085C73.0594 34.6036 72.9797 34.0637 72.9797 33.4938V27.7949C72.9797 27.305 73.0544 26.8201 73.2138 26.3552C73.3682 25.8903 73.6023 25.4703 73.9211 25.1004C74.2399 24.7305 74.6434 24.4355 75.1316 24.2156C75.6197 23.9956 76.2125 23.8856 76.8949 23.8856C77.5275 23.8856 78.0854 23.9906 78.5636 24.2056C79.0418 24.4205 79.4453 24.7055 79.774 25.0604C80.1028 25.4153 80.3519 25.8303 80.5212 26.3052C80.6906 26.7801 80.7753 27.275 80.7753 27.7949V33.6488H80.7703Z" fill="black"/>
<path d="M89.9407 37.5231L86.0753 30.2844C85.9706 30.1045 85.8312 29.8445 85.6568 29.5146C85.4825 29.1846 85.3032 28.8447 85.1139 28.4948C84.9246 28.1448 84.7453 27.8049 84.5709 27.4749C84.3966 27.145 84.2671 26.8901 84.1774 26.7051H84.1376V37.5231H82.8773V23.9856H84.0977C84.2023 24.1806 84.3518 24.4655 84.556 24.8404C84.7552 25.2154 84.9844 25.6403 85.2334 26.1052C85.4875 26.5701 85.7465 27.06 86.0205 27.5749C86.2944 28.0848 86.5485 28.5747 86.7975 29.0347C87.0416 29.4946 87.2658 29.9145 87.465 30.2894C87.6643 30.6644 87.8237 30.9493 87.9382 31.1443L89.856 34.7836L89.9357 34.7636V23.9856H91.1561V37.5231H89.9357H89.9407Z" fill="black"/>
<path d="M98.0003 28.9597L97.1684 25.8103H97.0887C97.0638 25.9152 97.009 26.1152 96.9343 26.4151C96.8546 26.7151 96.7699 27.04 96.6803 27.39C96.5906 27.7399 96.5009 28.0698 96.4163 28.3748C96.3316 28.6797 96.2768 28.8797 96.2519 28.9697C96.212 29.1246 96.1373 29.3996 96.0178 29.7945C95.9032 30.1894 95.7836 30.6094 95.6591 31.0593C95.5346 31.5042 95.415 31.9291 95.3005 32.324C95.1859 32.719 95.1012 32.9939 95.0464 33.1489H99.1759L97.9953 28.9647L98.0003 28.9597ZM100.386 37.5181L99.4747 34.2687H94.7824L93.8709 37.5181H92.5907L96.5258 23.9806H97.7462L101.681 37.5181H100.381H100.386Z" fill="black"/>
<path d="M103.136 37.5231V23.9806H104.356V36.3133H110V37.5231H103.136Z" fill="black"/>
<path d="M5.40959 45.3266L4.57773 42.1772H4.50301C4.47811 42.2822 4.42331 42.4821 4.34859 42.7821C4.26889 43.082 4.18421 43.407 4.09455 43.7569C4.00489 44.1068 3.91523 44.4368 3.83055 44.7417C3.74587 45.0467 3.69107 45.2466 3.66617 45.3366C3.62632 45.4916 3.5516 45.7665 3.43205 46.1615C3.31748 46.5564 3.19794 46.9763 3.0734 47.4262C2.94887 47.8711 2.82933 48.2961 2.71476 48.691C2.59521 49.0859 2.51551 49.3609 2.46072 49.5158H6.59014L5.40959 45.3316V45.3266ZM7.79559 53.885L6.88403 50.6356H2.19173L1.28017 53.885H0L3.93515 40.3475H5.15555L9.0907 53.885H7.79061H7.79559Z" fill="black"/>
<path d="M11.9001 40.3475H10.6398V53.885H11.9001V40.3475Z" fill="black"/>
<path d="M15.7606 41.4773V46.7114H18.3657C19.1976 46.7114 19.8302 46.4814 20.2735 46.0165C20.7169 45.5566 20.936 44.8867 20.936 44.0169C20.936 43.147 20.7169 42.5371 20.2835 42.1122C19.8501 41.6873 19.2125 41.4773 18.3657 41.4773H15.7606ZM18.6098 40.3475C19.7605 40.3475 20.6471 40.6675 21.2648 41.3124C21.8874 41.9522 22.1963 42.8571 22.1963 44.0269C22.1963 44.9217 21.9871 45.6815 21.5736 46.3014C21.1602 46.9263 20.5326 47.3662 19.6957 47.6262L22.3706 53.89H20.9958L18.4654 47.7812L15.7606 47.8012V53.89H14.5402V40.3525H18.6098V40.3475Z" fill="black"/>
<path d="M30.6045 44.2968C30.6045 43.427 30.3904 42.7471 29.967 42.2522C29.5386 41.7623 28.8761 41.5123 27.9695 41.5123H25.4689V47.0963H27.9894C28.4826 47.0963 28.896 47.0213 29.2297 46.8713C29.5635 46.7214 29.8325 46.5214 30.0317 46.2664C30.231 46.0115 30.3754 45.7165 30.4701 45.3716C30.5597 45.0267 30.6045 44.6667 30.6045 44.2918M31.8648 44.3118C31.8648 44.8317 31.7951 45.3316 31.6606 45.8115C31.5261 46.2914 31.3069 46.7114 31.003 47.0763C30.6992 47.4412 30.3057 47.7312 29.8275 47.9511C29.3493 48.1711 28.7665 48.2811 28.0841 48.2811H25.4689V53.885H24.2087V40.3475H28.0093C29.2497 40.3475 30.2011 40.6775 30.8686 41.3324C31.536 41.9872 31.8648 42.982 31.8648 44.3168" fill="black"/>
<path d="M39.5807 44.1818C39.5807 43.8819 39.5309 43.5719 39.4362 43.247C39.3366 42.9221 39.1872 42.6271 38.978 42.3622C38.7688 42.0972 38.4998 41.8723 38.171 41.7023C37.8373 41.5273 37.4388 41.4373 36.9755 41.4373C36.5123 41.4373 36.1088 41.5173 35.7701 41.6823C35.4313 41.8473 35.1524 42.0572 34.9332 42.3172C34.714 42.5771 34.5497 42.8721 34.4451 43.202C34.3405 43.5319 34.2906 43.8619 34.2906 44.1868V49.8958C34.2906 50.3257 34.3454 50.7206 34.455 51.0856C34.5646 51.4505 34.734 51.7654 34.9631 52.0304C35.1873 52.2953 35.4712 52.5053 35.8099 52.6553C36.1486 52.8052 36.5422 52.8802 36.9954 52.8802C37.3591 52.8802 37.6978 52.8102 38.0166 52.6753C38.3354 52.5403 38.6094 52.3453 38.8435 52.1004C39.0776 51.8554 39.2569 51.5605 39.3864 51.2255C39.5159 50.8906 39.5807 50.5257 39.5807 50.1357V44.1918V44.1818ZM40.8609 50.0108C40.8609 50.6056 40.7662 51.1505 40.5819 51.6354C40.3926 52.1204 40.1286 52.5403 39.7849 52.8902C39.4412 53.2402 39.0377 53.5151 38.5645 53.7101C38.0913 53.905 37.5683 54 36.9855 54C36.313 54 35.7302 53.895 35.2421 53.6801C34.7489 53.4651 34.3454 53.1702 34.0217 52.7952C33.6979 52.4203 33.4588 51.9754 33.3044 51.4705C33.15 50.9656 33.0703 50.4257 33.0703 49.8558V44.1568C33.0703 43.6669 33.15 43.182 33.3044 42.7171C33.4588 42.2522 33.6929 41.8323 34.0117 41.4623C34.3305 41.0924 34.734 40.7975 35.2221 40.5775C35.7103 40.3575 36.3031 40.2476 36.9855 40.2476C37.6181 40.2476 38.176 40.3525 38.6542 40.5675C39.1324 40.7825 39.5359 41.0674 39.8646 41.4223C40.1934 41.7773 40.4424 42.1922 40.6118 42.6671C40.7812 43.142 40.8658 43.6369 40.8658 44.1568V50.0108H40.8609Z" fill="black"/>
<path d="M44.2132 41.4773V46.7114H46.8184C47.6502 46.7114 48.2828 46.4814 48.7262 46.0165C49.1645 45.5566 49.3887 44.8867 49.3887 44.0169C49.3887 43.147 49.1695 42.5371 48.7361 42.1122C48.3028 41.6873 47.6652 41.4773 46.8184 41.4773H44.2132ZM47.0624 40.3475C48.2131 40.3475 49.0998 40.6675 49.7174 41.3124C50.3351 41.9522 50.6489 42.8571 50.6489 44.0269C50.6489 44.9217 50.4397 45.6815 50.0312 46.3014C49.6178 46.9263 48.9902 47.3662 48.1484 47.6262L50.8233 53.89H49.4484L46.918 47.7812L44.2132 47.8012V53.89H42.9928V40.3525H47.0624V40.3475Z" fill="black"/>
<path d="M55.8991 41.4773V53.885H54.6787V41.4773H51.4609V40.3475H59.0821V41.4773H55.8991Z" fill="black"/>
<path d="M7.69599 21.1561C7.20285 20.1463 6.71967 19.1365 6.23151 18.1317C5.74833 17.1269 5.26018 16.1171 4.76704 15.1073C4.50801 15.4972 4.24899 15.8871 3.98997 16.282C3.73095 16.677 3.47192 17.0619 3.2129 17.4418V21.1561H1.00623V7.61365H3.21788V13.7425H3.27766L7.23273 7.61365H9.77315L6.16676 13.0226C6.82428 14.3974 7.49176 15.7571 8.16422 17.0969C8.83668 18.4366 9.50915 19.7914 10.1816 21.1511H7.70097L7.69599 21.1561Z" fill="black"/>
<path d="M17.0357 11.6678C17.0357 11.4978 17.0058 11.2978 16.9461 11.0729C16.8863 10.8479 16.7867 10.628 16.6472 10.418C16.5027 10.2081 16.3134 10.0331 16.0743 9.88311C15.8352 9.73314 15.5264 9.65815 15.1528 9.65815C14.7792 9.65815 14.4654 9.72814 14.2114 9.86311C13.9573 9.99809 13.7581 10.1681 13.6087 10.368C13.4592 10.568 13.3546 10.7879 13.2899 11.0229C13.2251 11.2579 13.1952 11.4778 13.1952 11.6878L13.2151 16.8718C13.2151 17.5217 13.3646 18.0666 13.6634 18.5065C13.9623 18.9514 14.4654 19.1664 15.1777 19.1664C15.6808 19.1664 16.1192 18.9964 16.4878 18.6515C16.8564 18.3066 17.0407 17.8366 17.0407 17.2367V11.6628L17.0357 11.6678ZM19.2822 17.0518C19.2822 17.7017 19.1826 18.2816 18.9834 18.8015C18.7841 19.3214 18.5002 19.7663 18.1316 20.1312C17.763 20.5011 17.3296 20.7861 16.8215 20.9761C16.3184 21.171 15.7605 21.266 15.1528 21.266C14.4156 21.266 13.783 21.146 13.255 20.9061C12.727 20.6661 12.2936 20.3412 11.9649 19.9313C11.6361 19.5213 11.392 19.0514 11.2376 18.5115C11.0832 17.9716 11.0035 17.4067 11.0035 16.8068V11.6928C11.0035 11.2129 11.0782 10.728 11.2276 10.233C11.3771 9.73814 11.6162 9.29322 11.9449 8.89329C12.2737 8.49337 12.7021 8.15843 13.2251 7.90348C13.7481 7.64353 14.3907 7.51355 15.1528 7.51355C15.8651 7.51355 16.4778 7.63853 16.9959 7.88348C17.5139 8.12844 17.9423 8.45338 18.286 8.8483C18.6297 9.24323 18.8788 9.69315 19.0431 10.1881C19.2025 10.688 19.2872 11.1929 19.2872 11.6978V17.0468L19.2822 17.0518Z" fill="black"/>
<path d="M29.3443 17.3017C29.3443 18.5315 28.9707 19.5013 28.2186 20.2112C27.4714 20.9161 26.4104 21.271 25.0405 21.271C23.9546 21.271 23.058 21.056 22.3457 20.6261C21.6334 20.1962 21.0805 19.6413 20.677 18.9564L22.5001 17.6317C22.799 18.0966 23.1527 18.4715 23.5661 18.7515C23.9795 19.0314 24.4826 19.1714 25.0804 19.1714C25.7927 19.1714 26.2908 19.0014 26.5797 18.6565C26.8736 18.3116 27.0181 17.8866 27.0181 17.3817C27.0181 17.0718 26.9583 16.8018 26.8437 16.5819C26.7292 16.3619 26.5648 16.1719 26.3606 16.007C26.1513 15.842 25.9023 15.702 25.6034 15.5871C25.3045 15.4721 24.9808 15.3621 24.6321 15.2571C23.9845 15.0472 23.4366 14.8272 22.9833 14.5922C22.53 14.3573 22.1614 14.0873 21.8675 13.7824C21.5786 13.4774 21.3644 13.1275 21.2399 12.7276C21.1104 12.3327 21.0456 11.8777 21.0456 11.3728C21.0456 10.8129 21.1452 10.298 21.3345 9.82312C21.5288 9.34821 21.8077 8.93829 22.1664 8.59835C22.525 8.25341 22.9584 7.98846 23.4565 7.7985C23.9546 7.60853 24.5125 7.51355 25.1352 7.51355C26.1414 7.51355 26.9583 7.68352 27.5859 8.01846C28.2136 8.35839 28.7117 8.81831 29.0903 9.3982L27.4016 10.8179C27.1028 10.403 26.769 10.0981 26.3954 9.90311C26.0218 9.70814 25.5885 9.61316 25.0953 9.61316C24.5125 9.61316 24.0692 9.77313 23.7604 10.0881C23.4515 10.403 23.2971 10.8029 23.2971 11.2829C23.2971 11.5528 23.3669 11.7928 23.5113 11.9927C23.6558 12.1927 23.8451 12.3726 24.0941 12.5276C24.3382 12.6826 24.6321 12.8226 24.9658 12.9475C25.2996 13.0725 25.6582 13.1925 26.0318 13.3075C26.6644 13.5024 27.1924 13.7274 27.6108 13.9774C28.0293 14.2323 28.368 14.5223 28.627 14.8422C28.886 15.1671 29.0703 15.5271 29.1799 15.932C29.2895 16.3319 29.3443 16.7868 29.3443 17.2917" fill="black"/>
<path d="M33.399 7.61365H31.1674V21.1511H33.399V7.61365Z" fill="black"/>
<path d="M43.6703 18.2766C43.4511 19.2214 42.9829 19.9613 42.2755 20.4862C41.5632 21.0111 40.7064 21.276 39.7002 21.276C39.0029 21.276 38.3952 21.166 37.8771 20.9461C37.3591 20.7261 36.9257 20.4212 36.577 20.0312C36.2283 19.6413 35.9693 19.1864 35.8 18.6615C35.6306 18.1366 35.5509 17.5667 35.5509 16.9568V11.7028C35.5509 11.1729 35.6356 10.653 35.8 10.1481C35.9693 9.64316 36.2234 9.19324 36.5671 8.80332C36.9108 8.41339 37.3392 8.10345 37.8572 7.86849C38.3752 7.63353 38.9879 7.51855 39.7002 7.51855C40.7861 7.51855 41.6678 7.8035 42.3453 8.3734C43.0227 8.94329 43.471 9.65816 43.6902 10.513L41.5782 11.2129C41.5383 11.0179 41.4736 10.8329 41.3839 10.648C41.2942 10.468 41.1697 10.303 41.0153 10.1531C40.8609 10.0031 40.6716 9.88312 40.4524 9.79313C40.2332 9.70315 39.9792 9.65816 39.6953 9.65816C39.3565 9.65816 39.0726 9.71815 38.8335 9.83313C38.5944 9.9531 38.3952 10.1031 38.2408 10.293C38.0863 10.483 37.9718 10.693 37.8921 10.9229C37.8124 11.1579 37.7775 11.3878 37.7775 11.6228V17.0118C37.7775 17.2967 37.8174 17.5717 37.8921 17.8316C37.9718 18.0916 38.0913 18.3166 38.2507 18.5115C38.4101 18.7065 38.6143 18.8565 38.8534 18.9664C39.0925 19.0764 39.3715 19.1314 39.6953 19.1314C40.1735 19.1314 40.5819 18.9964 40.9157 18.7215C41.2494 18.4515 41.4636 18.0716 41.5533 17.5917L43.6653 18.2716L43.6703 18.2766Z" fill="black"/>
<path d="M45.3937 21.1561V7.61365H52.8954V9.67827H47.6054V13.2976H52.1582V15.3172H47.6054V19.0565H52.8954V21.1561H45.3937Z" fill="black"/>
<path d="M40.0439 1.0848C39.9094 0.589891 38.6542 0.549898 38.1461 0.719867C36.308 1.33475 34.4699 1.94964 32.6319 2.55953L26.246 0L25.5735 0.719867L28.3032 4.01426C26.5448 4.62414 23.317 5.75393 22.7342 5.9489C22.2311 6.11887 25.9919 6.65377 26.8537 6.5088C26.8537 6.5088 33.4737 4.3392 36.4027 3.36438C37.1548 3.11442 37.907 2.86447 38.6591 2.60952C39.1622 2.43955 40.1884 1.6247 40.0389 1.0848" fill="black"/>
<path d="M21.6932 3.60437L21.1801 4.07928L22.54 5.66899L24.5026 4.97412L21.6932 3.60437Z" fill="black"/>
</g>
<defs>
<clipPath id="clip0_2503_3">
<rect width="110" height="54" fill="white"/>
</clipPath>
</defs>
</svg>
