<?xml version="1.0" encoding="UTF-8"?>
<svg id="Layer_1" xmlns="http://www.w3.org/2000/svg" viewBox="0 0 1200 628">
  <defs>
    <style>
      .cls-1 {
        fill: #1a1a19;
      }
    </style>
  </defs>
  <path class="cls-1" d="M748.64,96.52c6.8-7.88,20.98-14.33,31.53-14.33h183.82c10.54,0,19.16,8.44,19.16,18.76v77.76c0,10.32-8.62,18.76-19.16,18.76h-283.31c-10.54,0-13.59-6.45-6.79-14.33l74.75-86.62Z"/>
  <path class="cls-1" d="M216.83,528.68c0,10.32,8.6,18.7,19.14,18.62l83.69-.66c10.54-.09,24.66-6.66,31.38-14.61L719.23,96.24c6.71-7.95,3.59-14.46-6.96-14.46h-119.33c-10.54,0-24.66,6.51-31.37,14.46l-214.48,254.15c-6.72,7.95-12.21,6.02-12.21-4.3V100.54c0-10.32-8.62-18.76-19.16-18.76h-79.37c-10.54,0-19.17,8.44-19.18,18.76l-.35,428.14Z"/>
  <path class="cls-1" d="M690.63,349.5c0,10.32,8.62,18.76,19.16,18.76h254.21c10.55,0,19.17-8.44,19.17-18.76v-77.54c0-10.32-8.62-18.76-19.17-18.76h-254.21c-10.54,0-19.16,8.44-19.16,18.76v77.54Z"/>
  <path class="cls-1" d="M690.63,528.16c0,10.33,8.62,18.77,19.16,18.77h254.21c10.55,0,19.17-8.44,19.17-18.77v-77.75c0-10.31-8.62-18.76-19.17-18.76h-254.21c-10.54,0-19.16,8.44-19.16,18.76v77.75Z"/>
  <path class="cls-1" d="M583.12,293.6l-75.79,88.29,3.03,2.11,3.06,2.11,2.38,2.56,2.19,2.78,1.07,1.29.65,1.48.67,1.48.64,1.48.43,1.49.45,1.48v1.74l.19,1.48-.19,2.97-.24,2.96-.64,2.78-1.1,2.78-1.28,2.55-1.54,2.34-1.93,2.33-2.38,2.12-2.83,1.92-3.26,1.7-3.71,1.48-4.11,1.29-4.58,1.27-5.19.63-5.86.66-6.3.19h-7.16l-3.92-.19-3.26-.22-18.45,21.89-17.59,20.84-16.07,19.15-14.33,17.22-11.95,14.26-9.12,11.04-5.86,7.04-2.18,2.56h173.07l5.23-.22,5.21-.41,5.22-.44,5.18-.86,5.45-1.04,5.44-1.07,5.23-1.52,5.41-1.68,5.44-1.91,5.18-2.12,5.22-2.34,5.23-2.59,9.98-5.93,5-3.21,4.56-3.6,4.58-3.63,4.53-4.03,4.13-4.05,3.9-4.47,3.93-4.67,3.48-4.67,3.26-5.11,3.02-5.33,2.84-5.51,2.61-5.75,1.95-5.96,1.94-6.38,1.52-6.37,1.09-6.6.65-7.03.46-7v-8.74l-.65-8.3-.87-7.84-1.32-7.67-1.74-7.44-2.16-7-2.39-6.82-2.6-6.59-3.06-6.37-3.03-5.96-6.96-11.07-3.67-5.11-3.7-4.89-3.9-4.67-3.93-4.25-3.9-4.27-3.92-3.81-3.67-3.41-3.9-3.41-7.18-5.74-6.51-4.89-9.99-6.81-4.8-2.77ZM546.63,82.63l-1.29-.22-3.71-.41-6.09-.45-8.02-.41-9.53-.44h-10.89l-5.87.22-6.08.41-6.5.44-6.28.64-6.74.85-6.74,1.07-6.72,1.26-6.74,1.48-6.73,1.71-6.77,2.14-6.69,2.34-6.54,2.77-6.51,2.96-6.08,3.41-5.85,3.63-5.87,4.22-5.44,4.48-5,4.89-4.77,5.52-4.34,5.74-3.27,5.11-2.83,5.11-2.81,5.11-2.38,5.3-2.2,5.11-1.93,5.33-1.54,5.3-1.51,5.33-1.1,5.29-.84,5.33-.9,5.33-.42,5.3-.46,5.11-.19,5.11.19,5.11.23,5.07.23,4.93.65,4.89.67,4.89.84,4.45,1.1,4.7,1.09,4.26,1.07,4.44,1.54,4.04,1.28,4.04,1.75,3.63,1.51,3.81,1.74,3.41,1.97,3.18,1.74,3,1.93,2.74,1.97,2.77,162.66-194.81Z"/>
</svg>