<?xml version="1.0" encoding="UTF-8"?>
<svg xmlns="http://www.w3.org/2000/svg" version="1.1" viewBox="0 0 800 270">
  <defs>
    <style>
      .cls-1 {
        fill: #1a1a19;
      }
    </style>
  </defs>
  <!-- Generator: Adobe Illustrator 28.7.4, SVG Export Plug-In . SVG Version: 1.2.0 Build 166)  -->
  <g>
    <g id="Layer_1">
      <g>
        <g>
          <path class="cls-1" d="M98.7,177.5h5.7l9.5,25.4h-5.8l-1.9-5.7h-9.5l-2,5.7h-5.7l9.7-25.4ZM98.2,193.1h6.6l-3.2-9.3h0l-3.3,9.3Z"/>
          <path class="cls-1" d="M126.1,177.5h5.6v9.8h10.3v-9.8h5.6v25.4h-5.6v-11h-10.3v11h-5.6s0-25.4,0-25.4Z"/>
          <path class="cls-1" d="M156.8,181.7h-5.1v-4.2h5.1v4.2ZM151.8,184.5h5.1v18.4h-5.1v-18.4Z"/>
          <path class="cls-1" d="M167.9,184.5h3.7v3.4h-3.7v9.1c0,1.7.4,2.1,2.1,2.1s1.1,0,1.6-.1v4c-.9.1-2,.2-3,.2-3.1,0-5.8-.7-5.8-4.4v-10.9h-3.1v-3.4h3.1v-5.5h5.1v5.5Z"/>
          <path class="cls-1" d="M174.6,190.2c.3-4.7,4.5-6.2,8.7-6.2s8.1.8,8.1,5.2v9.6c0,1.7.2,3.4.6,4.1h-5.1c-.2-.6-.3-1.2-.4-1.8-1.6,1.7-3.9,2.3-6.2,2.3-3.5,0-6.3-1.8-6.3-5.5,0-8.4,12.5-3.9,12.3-8,0-2.1-1.5-2.5-3.3-2.5s-3.2.8-3.4,2.8h-5.1ZM186.2,193.9c-.9.8-2.6.8-4.2,1.1-1.6.3-3,.9-3,2.7s1.5,2.4,3.1,2.4c4,0,4.1-3.1,4.1-4.2v-1.9Z"/>
          <path class="cls-1" d="M207.4,191c-.3-2.1-1.6-3.2-3.7-3.2-3.2,0-4.3,3.3-4.3,6s1,5.8,4.2,5.8,3.7-1.5,4-3.7h4.9c-.7,4.9-4,7.6-8.9,7.6s-9.3-3.9-9.3-9.4,3.4-10,9.4-10,8.4,2.3,8.7,7h-5Z"/>
          <path class="cls-1" d="M215.7,177.5h5.1v9.6h.1c1.3-2.1,3.5-3.1,5.4-3.1,5.4,0,6.7,3,6.7,7.6v11.3h-5.1v-10.4c0-3-.9-4.5-3.2-4.5s-3.9,1.5-3.9,5.3v9.7h-5.1v-25.4h0Z"/>
          <path class="cls-1" d="M241.6,181.7h-5.1v-4.2h5.1v4.2ZM236.6,184.5h5.1v18.4h-5.1v-18.4Z"/>
          <path class="cls-1" d="M273,200.1c-2,2.6-4.5,3.5-7,3.5-7.8,0-12.5-5.9-12.5-13.2s4.7-13.4,12.5-13.4,10.2,3.2,10.7,9h-5.4c-.7-2.9-2.7-4.3-5.4-4.3-5,0-6.9,4.3-6.9,8.7s1.9,8.5,6.9,8.5,5.7-1.9,6.1-5.5h-5.6v-4.2h10.7v13.8h-3.6l-.6-2.9Z"/>
          <path class="cls-1" d="M281.2,184.5h4.8v3.4h0c1-2.3,3.4-3.9,5.9-3.9s.8,0,1.1.2v4.7c-.5-.1-1.2-.2-1.8-.2-3.7,0-5,2.6-5,5.9v8.3h-5.1v-18.4h0Z"/>
          <path class="cls-1" d="M303.3,184.1c5.8,0,9.5,3.9,9.5,9.7s-3.7,9.7-9.5,9.7-9.5-3.9-9.5-9.7c0-5.9,3.7-9.7,9.5-9.7ZM303.3,199.7c3.5,0,4.5-2.9,4.5-5.9s-1-5.9-4.5-5.9-4.5,3-4.5,5.9c0,2.9,1,5.9,4.5,5.9Z"/>
          <path class="cls-1" d="M332.3,203h-4.8v-2.6h-.1c-1.3,2.1-3.5,3.1-5.6,3.1-5.4,0-6.7-3-6.7-7.6v-11.3h5.1v10.4c0,3,.9,4.5,3.2,4.5s3.9-1.5,3.9-5.3v-9.7h5.1v18.4h0Z"/>
          <path class="cls-1" d="M335.4,184.5h4.8v2.4h0c1.2-2,3.2-2.9,5.5-2.9,5.8,0,8.4,4.7,8.4,9.9s-2.7,9.5-8.1,9.5-4.3-1-5.5-2.8h0v8.8h-5.1v-24.9h0ZM349.1,193.8c0-3-1.2-5.9-4.4-5.9s-4.4,3-4.4,5.9,1.1,5.8,4.4,5.8c3.3,0,4.4-2.8,4.4-5.8Z"/>
          <path class="cls-1" d="M381.4,186.1c-.4-2.5-2.8-4.4-5.6-4.4-5,0-6.9,4.3-6.9,8.7s1.9,8.5,6.9,8.5,5.4-2.3,5.8-5.7h5.4c-.6,6.4-4.9,10.4-11.2,10.4s-12.5-5.9-12.5-13.2,4.7-13.4,12.5-13.4,10.3,3.3,11,9.2h-5.4Z"/>
          <path class="cls-1" d="M398.5,184.1c5.8,0,9.5,3.9,9.5,9.7s-3.7,9.7-9.5,9.7-9.5-3.9-9.5-9.7c0-5.9,3.7-9.7,9.5-9.7ZM398.5,199.7c3.5,0,4.5-2.9,4.5-5.9s-1-5.9-4.5-5.9-4.5,3-4.5,5.9c0,2.9,1,5.9,4.5,5.9Z"/>
          <path class="cls-1" d="M409.4,184.5h4.8v2.5h0c1.3-1.9,3.2-3,5.6-3s4.4.8,5.4,3.1c1.1-1.6,3-3.1,5.6-3.1,3.9,0,6.7,1.8,6.7,6.6v12.3h-5.1v-10.4c0-2.5-.2-4.5-3.1-4.5s-3.4,2.4-3.4,4.7v10.3h-5.1v-10.3c0-2.1.1-4.6-3.1-4.6s-3.4.6-3.4,4.2v10.7h-5.1v-18.4h0Z"/>
          <path class="cls-1" d="M440.4,184.5h4.8v2.4h0c1.2-2,3.2-2.9,5.5-2.9,5.8,0,8.4,4.7,8.4,9.9s-2.7,9.5-8.1,9.5-4.3-1-5.5-2.8h0v8.8h-5.1v-24.9h0ZM454.1,193.8c0-3-1.2-5.9-4.4-5.9s-4.4,3-4.4,5.9,1.1,5.8,4.4,5.8c3.3,0,4.4-2.8,4.4-5.8Z"/>
          <path class="cls-1" d="M461.3,190.2c.3-4.7,4.5-6.2,8.7-6.2s8.1.8,8.1,5.2v9.6c0,1.7.2,3.4.6,4.1h-5.1c-.2-.6-.3-1.2-.4-1.8-1.6,1.7-3.9,2.3-6.2,2.3-3.5,0-6.3-1.8-6.3-5.5,0-8.4,12.5-3.9,12.3-8,0-2.1-1.5-2.5-3.3-2.5s-3.2.8-3.4,2.8h-5.1ZM473,193.9c-.9.8-2.6.8-4.2,1.1-1.6.3-3,.9-3,2.7s1.5,2.4,3.1,2.4c4,0,4.1-3.1,4.1-4.2v-1.9h0Z"/>
          <path class="cls-1" d="M481.2,184.5h4.8v2.6h.1c1.3-2.1,3.5-3.1,5.6-3.1,5.4,0,6.7,3,6.7,7.6v11.3h-5.1v-10.4c0-3-.9-4.5-3.2-4.5s-3.9,1.5-3.9,5.3v9.7h-5.1v-18.4h0Z"/>
          <path class="cls-1" d="M510.8,205.3c-1.1,3-2.9,4.2-6.3,4.2s-2.1,0-3.1-.2v-4.2c1,.1,2,.2,3,.2,1.3-.1,2-1.2,2-2.3s0-.8-.2-1.1l-6.5-17.3h5.4l4.2,12.6h0l4-12.6h5.2l-7.7,20.8Z"/>
        </g>
        <g>
          <g>
            <path class="cls-1" d="M129.8,114.7h28.6c-3.7,13.2-15.8,22.8-30.1,22.8s-31.3-14-31.3-31.3,14.1-31.3,31.3-31.3,24.2,8,28.9,19.4h8.5c-5.1-15.8-19.9-27.3-37.4-27.3s-39.3,17.6-39.3,39.3,17.6,39.3,39.3,39.3,23.9-6.2,30.6-15.2v13.5h7.3v-37h-36.4v7.8h0Z"/>
            <rect class="cls-1" x="179.5" y="69.4" width="7.8" height="74.4"/>
            <rect class="cls-1" x="410.8" y="69.4" width="7.8" height="74.3"/>
            <path class="cls-1" d="M228.1,138.4c-12,0-21.8-10.3-21.8-22.3s9.8-22.3,21.8-22.3,21.8,10.3,21.8,22.3c0,12-9.8,22.3-21.8,22.3M228.1,86.3c-16.4,0-29.7,13.3-29.7,29.7s13.3,29.7,29.7,29.7,29.7-13.3,29.7-29.7-13.4-29.7-29.7-29.7"/>
            <path class="cls-1" d="M296.7,138.4c-12,0-21.8-10.3-21.8-22.3s9.8-22.3,21.8-22.3,21.8,10.3,21.8,22.3c0,12-9.8,22.3-21.8,22.3M297,85.8c-8.8,0-16.7,3.9-22.2,10v-26.4h-7.8v74.4h7.8v-7.5c5.5,6.1,13.4,10,22.2,10,16.5,0,29.9-13.5,29.9-30.2,0-16.7-13.4-30.3-29.9-30.3"/>
            <path class="cls-1" d="M367.4,138.4c-12,0-21.8-10.3-21.8-22.4s9.8-22.3,21.8-22.3,21.8,10.3,21.8,22.3c0,12-9.8,22.4-21.8,22.4M389.2,95.9c-5.5-6.2-13.6-10.1-22.5-10.1-16.7,0-30.3,13.6-30.3,30.3s13.5,30.2,30.3,30.2c9,0,17-3.9,22.5-10.1v7.6h7.9v-54.5h-7.9v6.6Z"/>
            <rect class="cls-1" x="624.8" y="61.8" width="13.9" height="13.1"/>
            <polygon class="cls-1" points="446.6 69.4 433.9 69.4 433.9 131.8 433.9 143.7 475.6 143.7 475.6 131.8 446.6 131.8 446.6 69.4"/>
            <rect class="cls-1" x="624.8" y="85.2" width="13.9" height="58.4"/>
            <path class="cls-1" d="M510.8,133.6c-9.3,0-16.8-8.1-16.8-18.1s7.5-18,16.8-18,16.8,8.1,16.8,18-7.5,18.1-16.8,18.1M510.8,85c-16.8,0-30.5,13.7-30.5,30.5s13.7,30.5,30.5,30.5,30.5-13.6,30.5-30.5-13.6-30.5-30.5-30.5"/>
            <path class="cls-1" d="M696.6,123.7c-2.8,5.9-8.5,10-15.1,10s-16.8-8.1-16.8-18.1,7.5-18.1,16.8-18.1,11.8,3.7,14.7,9.1h14.5c-3.8-12.5-15.4-21.6-29.2-21.6s-30.5,13.7-30.5,30.5,13.7,30.5,30.5,30.5,25.9-9.5,29.4-22.4c0,0-14.4,0-14.4,0Z"/>
            <path class="cls-1" d="M578.6,163.9c-6.2,0-12.2-3.3-15.8-8.2l-12.3,6c5.8,9.1,15.5,15.2,28.1,15.2,16.3,0,29.6-12.9,30.9-28.4h-13.9c-1.2,8.7-8.3,15.4-17,15.4"/>
            <path class="cls-1" d="M579.3,133.9c-9.2,0-16.8-8.1-16.8-18s7.5-18,16.8-18,16.8,8,16.8,18-7.5,18-16.8,18M597.1,91.3c-5-3.6-11.2-5.8-17.8-5.8-16.8,0-30.4,13.6-30.4,30.4s13.6,30.4,30.4,30.4,30.3-13.5,30.4-30.2v-30.7h-12.5v6Z"/>
          </g>
          <path class="cls-1" d="M722.6,75c0-4.8,3.7-8.4,8.2-8.4s8.2,3.6,8.2,8.4-3.6,8.4-8.2,8.4-8.2-3.6-8.2-8.4ZM737.8,75c0-4.2-2.9-7.3-7-7.3s-6.9,3.1-6.9,7.3,3,7.2,6.9,7.2,7-3.1,7-7.2ZM727.6,70.4h4.2c1.6,0,2.9,1,2.9,2.5s-.5,1.8-1.8,2.2h0c1,.3,1.4.8,1.5,1.9.1,1.2.1,2.2.4,2.3h0c0,.1-1.7.1-1.7.1-.3-.1-.3-1.1-.4-2.1,0-1-.6-1.5-1.7-1.5h-1.6v3.6h-1.8v-9h0ZM729.3,74.4h2c1,0,1.5-.5,1.5-1.3s-.5-1.3-1.5-1.3h-2v2.6h0Z"/>
        </g>
      </g>
    </g>
  </g>
</svg>