<svg width="318" height="52" viewBox="0 0 318 52" fill="none" xmlns="http://www.w3.org/2000/svg">
<g clip-path="url(#clip0_2503_33)">
<path d="M79.6066 8.34031H74.9301V21.4103H72.3987V8.34031H67.7222V6.11536H79.6066V8.34031Z" fill="black"/>
<path d="M82.0048 21.4103V6.11536H91.9972V8.26037H84.5362V12.4571H91.5309V14.5089H84.5362V19.2786H92.3037V21.4103H82.0048Z" fill="black"/>
<path d="M104.015 16.3474H106.533V16.9603C106.533 17.5598 106.44 18.1194 106.24 18.639C106.04 19.1586 105.734 19.6649 105.294 20.1312C104.868 20.5975 104.255 20.9705 103.469 21.2503C102.683 21.5301 101.75 21.6633 100.697 21.6633C99.6448 21.6633 98.6855 21.5034 97.8861 21.1837C97.0867 20.8639 96.4739 20.4376 96.0342 19.8914C95.5945 19.3584 95.2748 18.7722 95.0749 18.1594C94.8751 17.5465 94.7685 16.8803 94.7685 16.1875V11.3646C94.7685 10.6718 94.8751 10.0056 95.0749 9.39277C95.2748 8.7799 95.5945 8.20701 96.0342 7.66076C96.4739 7.12784 97.0867 6.68818 97.8861 6.36843C98.6855 6.04867 99.6182 5.88879 100.697 5.88879C101.777 5.88879 102.683 6.02202 103.469 6.28849C104.255 6.55495 104.868 6.92799 105.294 7.38098C105.72 7.83396 106.04 8.32692 106.24 8.8332C106.44 9.33947 106.533 9.88572 106.533 10.4719V10.9915H104.015V10.6052C104.015 9.92569 103.748 9.33947 103.229 8.84652C102.709 8.35356 101.856 8.11375 100.697 8.11375C99.5382 8.11375 98.6589 8.4335 98.1126 9.05969C97.5797 9.68587 97.2999 10.4453 97.2999 11.3513V16.1742C97.2999 17.0935 97.5664 17.8662 98.0993 18.4924C98.6322 19.1186 99.4983 19.4384 100.684 19.4384C101.87 19.4384 102.696 19.1852 103.215 18.679C103.735 18.1727 104.002 17.5598 104.002 16.827V16.3474H104.015Z" fill="black"/>
<path d="M118.87 21.4103V14.5355H112.009V21.4103H109.477V6.11536H112.009V12.3239H118.87V6.11536H121.415V21.4103H118.87Z" fill="black"/>
<path d="M134.978 21.4103L127.57 10.7918V21.4103H125.172V6.11536H127.277L134.672 16.7605V6.11536H137.097V21.4103H134.978Z" fill="black"/>
<path d="M143.385 6.11536H140.854V21.4103H143.385V6.11536Z" fill="black"/>
<path d="M155.976 16.3474H158.494V16.9603C158.494 17.5598 158.4 18.1194 158.201 18.639C158.001 19.1586 157.694 19.6649 157.255 20.1312C156.828 20.5975 156.215 20.9705 155.429 21.2503C154.643 21.5301 153.711 21.6633 152.658 21.6633C151.606 21.6633 150.646 21.5034 149.847 21.1837C149.048 20.8639 148.435 20.4376 147.995 19.8914C147.555 19.3584 147.236 18.7722 147.036 18.1594C146.836 17.5465 146.729 16.8803 146.729 16.1875V11.3646C146.729 10.6718 146.836 10.0056 147.036 9.39277C147.236 8.7799 147.555 8.20701 147.995 7.66076C148.435 7.12784 149.048 6.68818 149.847 6.36843C150.646 6.04867 151.579 5.88879 152.658 5.88879C153.737 5.88879 154.643 6.02202 155.429 6.28849C156.215 6.55495 156.828 6.92799 157.255 7.38098C157.681 7.83396 158.001 8.32692 158.201 8.8332C158.4 9.33947 158.494 9.88572 158.494 10.4719V10.9915H155.976V10.6052C155.976 9.92569 155.709 9.33947 155.19 8.84652C154.67 8.35356 153.817 8.11375 152.658 8.11375C151.499 8.11375 150.62 8.4335 150.073 9.05969C149.54 9.68587 149.261 10.4453 149.261 11.3513V16.1742C149.261 17.0935 149.527 17.8662 150.06 18.4924C150.593 19.1186 151.459 19.4384 152.645 19.4384C153.831 19.4384 154.657 19.1852 155.176 18.679C155.696 18.1727 155.962 17.5598 155.962 16.827V16.3474H155.976Z" fill="black"/>
<path d="M163.983 17.2002V21.4103H161.438V6.11536H163.983V13.8827L170.645 6.11536H173.656L168.033 12.5637L173.789 21.4103H170.751L166.275 14.5755L163.983 17.2002Z" fill="black"/>
<path d="M185.393 21.4101L184.128 17.7197H178.265L177.013 21.4101H174.455L179.984 6.11525H182.542L188.058 21.4101H185.393ZM183.448 15.7079L181.197 9.09962L178.958 15.7079H183.448ZM184.501 1.90515L182.249 5.03608H180.304L181.876 1.90515H184.501Z" fill="black"/>
<path d="M194.773 6.11536H197.304V16.0411C197.304 16.987 197.571 17.7864 198.117 18.4392C198.65 19.092 199.543 19.4251 200.782 19.4251C202.021 19.4251 202.914 19.092 203.446 18.4392C203.979 17.7864 204.259 16.987 204.259 16.0411V6.11536H206.791V16.1743C206.791 16.8671 206.684 17.5332 206.484 18.1461C206.284 18.759 205.965 19.3452 205.525 19.8781C205.085 20.411 204.459 20.8507 203.66 21.1704C202.847 21.4902 201.888 21.6501 200.782 21.6501C199.676 21.6501 198.73 21.4902 197.917 21.1704C197.105 20.8507 196.478 20.4243 196.039 19.8781C195.599 19.3452 195.279 18.759 195.079 18.1461C194.88 17.5332 194.773 16.8671 194.773 16.1743V6.11536Z" fill="black"/>
<path d="M220.247 21.4103L212.839 10.7918V21.4103H210.441V6.11536H212.546L219.941 16.7605V6.11536H222.365V21.4103H220.247Z" fill="black"/>
<path d="M228.667 6.11536H226.136V21.4103H228.667V6.11536Z" fill="black"/>
<path d="M236.315 21.4103L230.986 6.11536H233.69L237.701 17.9329L241.671 6.11536H244.242L238.9 21.4103H236.315Z" fill="black"/>
<path d="M246.521 21.4103V6.11536H256.513V8.26037H249.052V12.4571H256.047V14.5089H249.052V19.2786H256.82V21.4103H246.521Z" fill="black"/>
<path d="M265.626 15.8812H262.389V21.4103H259.857V6.11536H265.626C266.759 6.11536 267.745 6.24859 268.557 6.50173C269.37 6.76819 269.996 7.12791 270.436 7.60754C270.876 8.08717 271.195 8.59345 271.382 9.15302C271.582 9.71259 271.675 10.3121 271.675 10.9916C271.675 13.2699 270.676 14.7487 268.664 15.4282L271.435 21.4103H268.73L266.212 15.8545C266.079 15.8679 265.893 15.8812 265.639 15.8812M265.639 8.26037H262.389V13.7895H265.639C267.944 13.7895 269.09 12.8702 269.09 11.0316C269.09 9.19299 267.944 8.26037 265.639 8.26037Z" fill="black"/>
<path d="M274.1 6.11536H285.012V8.15379L276.911 19.2519H285.318V21.4103H273.713V19.3585L281.841 8.2737H274.1V6.11536Z" fill="black"/>
<path d="M290.701 6.11536H288.169V21.4103H290.701V6.11536Z" fill="black"/>
<path d="M305.023 8.34031H300.347V21.4103H297.815V8.34031H293.139V6.11536H305.023V8.34031Z" fill="black"/>
<path d="M315.335 21.4103L314.07 17.7198H308.207L306.955 21.4103H304.397L309.926 6.11536H312.484L317.987 21.4103H315.322H315.335ZM313.39 15.708L311.139 9.09973L308.9 15.708H313.39Z" fill="black"/>
<path d="M72.9449 45.8847L67.6023 30.5898H70.3202L74.3172 42.4074L78.3009 30.5898H80.8723L75.5163 45.8847H72.9449Z" fill="black"/>
<path d="M90.2652 41.6747V45.8847H87.7338V30.5898H90.2652V38.3572L96.9402 30.5898H99.9512L94.3155 37.0382L100.084 45.8847H97.0467L92.5568 39.05L90.2652 41.6747Z" fill="black"/>
<path d="M110.024 45.6449C109.211 45.9646 108.252 46.1245 107.132 46.1245C106.013 46.1245 105.067 45.9646 104.255 45.6449C103.442 45.3251 102.816 44.8988 102.376 44.3525C101.936 43.8196 101.603 43.2334 101.403 42.6205C101.204 42.0077 101.097 41.3415 101.097 40.6487V35.8258C101.097 35.133 101.204 34.4668 101.403 33.8539C101.603 33.2411 101.936 32.6682 102.376 32.1219C102.816 31.589 103.442 31.1494 104.255 30.8296C105.067 30.5099 106.027 30.35 107.132 30.35C108.238 30.35 109.198 30.5099 110.024 30.8296C110.836 31.1494 111.463 31.5757 111.916 32.1219C112.355 32.6549 112.688 33.2411 112.888 33.8539C113.088 34.4668 113.195 35.1196 113.195 35.8258V40.6487C113.195 41.3415 113.088 42.0077 112.888 42.6205C112.688 43.2334 112.355 43.8196 111.916 44.3525C111.476 44.8855 110.836 45.3251 110.024 45.6449ZM107.146 43.8996C108.398 43.8996 109.291 43.5798 109.85 42.927C110.397 42.2741 110.663 41.4748 110.663 40.5155V35.9723C110.663 35.0131 110.397 34.2003 109.85 33.5608C109.304 32.908 108.398 32.5883 107.146 32.5883C105.893 32.5883 105.014 32.9213 104.468 33.5742C103.922 34.227 103.655 35.0264 103.655 35.9723V40.5155C103.655 41.4614 103.922 42.2608 104.468 42.9136C105.014 43.5665 105.907 43.8996 107.146 43.8996Z" fill="black"/>
<path d="M127.291 34.9597H124.759V34.6933C124.759 33.1878 123.68 32.4417 121.522 32.4417C119.496 32.4417 118.484 33.1611 118.484 34.5867C118.484 35.1329 118.644 35.546 118.977 35.8391C119.297 36.1322 119.816 36.3587 120.536 36.5185L123.773 37.2247C126.318 37.7709 127.597 39.1165 127.597 41.2349C127.597 42.7404 127.131 43.9262 126.225 44.8055C125.305 45.6848 123.853 46.1245 121.855 46.1245C120.709 46.1245 119.71 46.0046 118.884 45.7781C118.058 45.5516 117.418 45.2185 116.992 44.8055C116.565 44.3925 116.246 43.9528 116.059 43.4865C115.873 43.0202 115.779 42.5006 115.779 41.941V41.6613H118.311V41.9011C118.311 43.3133 119.47 44.0194 121.801 44.0194C123.92 44.0194 124.972 43.2067 124.972 41.568C124.972 40.9951 124.799 40.5554 124.453 40.2224C124.106 39.8893 123.573 39.6495 122.854 39.4896L119.616 38.7701C117.205 38.2505 115.992 36.9049 115.992 34.7599C115.992 33.4809 116.459 32.415 117.378 31.589C118.297 30.763 119.696 30.35 121.562 30.35C123.533 30.35 124.972 30.763 125.905 31.589C126.824 32.415 127.291 33.4409 127.291 34.6533V34.9597ZM121.721 28.2715H121.735L123.12 26.3664L125.026 26.433L122.867 29.5106L120.629 29.484L118.444 26.353H120.349L121.721 28.2582V28.2715Z" fill="black"/>
<path d="M133.166 30.5898H130.635V45.8847H133.166V30.5898Z" fill="black"/>
<path d="M145.757 40.8219H148.275V41.4348C148.275 42.0343 148.182 42.5939 147.982 43.1135C147.782 43.6331 147.475 44.1393 147.036 44.6057C146.609 45.072 145.996 45.445 145.21 45.7248C144.424 46.0046 143.492 46.1378 142.439 46.1378C141.387 46.1378 140.427 45.9779 139.628 45.6582C138.829 45.3384 138.216 44.9121 137.776 44.3658C137.336 43.8329 137.017 43.2467 136.817 42.6338C136.617 42.021 136.51 41.3548 136.51 40.662V35.8391C136.51 35.1463 136.617 34.4801 136.817 33.8673C137.017 33.2544 137.336 32.6815 137.776 32.1353C138.216 31.6023 138.829 31.1627 139.628 30.8429C140.427 30.5232 141.36 30.3633 142.439 30.3633C143.518 30.3633 144.424 30.4965 145.21 30.763C145.996 31.0294 146.609 31.4025 147.036 31.8555C147.462 32.3085 147.782 32.8014 147.982 33.3077C148.182 33.814 148.275 34.3602 148.275 34.9464V35.466H145.757V35.0797C145.757 34.4002 145.49 33.814 144.971 33.321C144.451 32.8281 143.598 32.5882 142.439 32.5882C141.28 32.5882 140.401 32.908 139.854 33.5342C139.322 34.1604 139.042 34.9198 139.042 35.8257V40.6487C139.042 41.568 139.308 42.3407 139.841 42.9669C140.374 43.5931 141.24 43.9129 142.426 43.9129C143.612 43.9129 144.438 43.6597 144.957 43.1534C145.477 42.6472 145.743 42.0343 145.743 41.3015V40.8219H145.757Z" fill="black"/>
<path d="M153.777 30.5898H151.246V45.8847H153.777V30.5898Z" fill="black"/>
<path d="M166.967 45.8847L165.702 42.1943H159.839L158.587 45.8847H156.029L161.558 30.5898H164.116L169.632 45.8847H166.967ZM165.022 40.1825L162.771 33.5742L160.532 40.1825H165.022Z" fill="black"/>
<path d="M180.411 40.8219H182.929V41.4348C182.929 42.0343 182.835 42.5939 182.636 43.1135C182.436 43.6331 182.129 44.1393 181.69 44.6057C181.263 45.072 180.65 45.445 179.864 45.7248C179.078 46.0046 178.146 46.1378 177.093 46.1378C176.041 46.1378 175.081 45.9779 174.282 45.6582C173.482 45.3384 172.87 44.9121 172.43 44.3658C171.99 43.8329 171.67 43.2467 171.471 42.6338C171.271 42.021 171.164 41.3548 171.164 40.662V35.8391C171.164 35.1463 171.271 34.4801 171.471 33.8673C171.67 33.2544 171.99 32.6815 172.43 32.1353C172.87 31.6023 173.482 31.1627 174.282 30.8429C175.081 30.5232 176.014 30.3633 177.093 30.3633C178.172 30.3633 179.078 30.4965 179.864 30.763C180.65 31.0294 181.263 31.4025 181.69 31.8555C182.116 32.3085 182.436 32.8014 182.636 33.3077C182.835 33.814 182.929 34.3602 182.929 34.9464V35.466H180.411V35.0797C180.411 34.4002 180.144 33.814 179.624 33.321C179.105 32.8281 178.252 32.5882 177.093 32.5882C175.934 32.5882 175.055 32.908 174.508 33.5342C173.975 34.1604 173.696 34.9198 173.696 35.8257V40.6487C173.696 41.568 173.962 42.3407 174.495 42.9669C175.028 43.5931 175.894 43.9129 177.08 43.9129C178.265 43.9129 179.092 43.6597 179.611 43.1534C180.131 42.6472 180.397 42.0343 180.397 41.3015V40.8219H180.411Z" fill="black"/>
<path d="M195.279 45.8847V38.9967H188.418V45.8847H185.873V30.5898H188.418V36.7984H195.279V30.5898H197.811V45.8847H195.279Z" fill="black"/>
<path d="M0 0H52.0008V15.2949H33.6546V33.6541H18.3595V15.2949H0V0Z" fill="black"/>
<path d="M52.0008 35.173C52.0008 44.4459 44.4465 52.0001 35.1735 52.0001H16.814C7.54099 52.0001 -0.0133057 44.4592 -0.0133057 35.173V18.3459H15.2818V36.7052H36.6923V18.3459H51.9874V35.173H52.0008Z" fill="black"/>
</g>
<defs>
<clipPath id="clip0_2503_33">
<rect width="318" height="52" fill="white"/>
</clipPath>
</defs>
</svg>
